<svg viewBox="0 0 24 24" width="1.5rem" height="1.5rem" xmlns="http://www.w3.org/2000/svg">
    <path d="M12 0a12 12 0 100 24 12 12 0 000-24zM4.7 20.2a32 32 0 015.5-2.2c.2-.1.3-.3.3-.5V15c0-.2-.1-.4-.3-.5 0 0-1.2-.4-1.2-2.5 0-.3-.2-.5-.5-.5l-.1-.5.1-.5c.3 0 .5-.2.5-.5l-.1-.5c-.2-.6-.6-2-.2-2.4 0 0 .2-.2.7-.1.3 0 .5-.1.6-.4.1-.6 1.3-1.1 2.8-1.1 1.4 0 2.6.5 2.7 1.1.2 1-.2 2.2-.4 2.8a2 2 0 00-.1.6c0 .3.2.5.5.5l.1.5-.1.5c-.3 0-.5.2-.5.5 0 2-1.1 2.5-1.2 2.5-.2 0-.3.3-.3.5v2.5c0 .2.1.4.3.5l1.6.6c1.5.5 3 1 4 1.6a10.9 10.9 0 01-14.7 0zm15.4-.8a27.6 27.6 0 00-5.6-2.2v-1.9c.5-.3 1.4-1.1 1.5-3 .4-.2.6-.7.6-1.3 0-.6-.2-1-.5-1.3.2-.8.7-2.1.4-3.3-.4-1.4-2.2-1.9-3.8-1.9-1.3 0-3 .4-3.5 1.5-.7 0-1.1.2-1.3.5-.6.8-.2 2.4 0 3.2-.3.2-.5.7-.5 1.3 0 .6.2 1.1.6 1.4.1 1.8 1 2.6 1.5 3v1.8l-1.2.4c-1.6.6-3.3 1.2-4.4 1.8a11 11 0 1116.2 0z" fill="#3E3832" fill-rule="evenodd"/>
</svg>

